<svg width="600" height="126" viewBox="0 0 600 126" fill="none" xmlns="http://www.w3.org/2000/svg">
    <path d="M310 62.9996C310 61.1996 309.9 59.3996 309.8 57.6996C309.7 55.9996 309.4 54.1996 309.2 52.4996H284.9H260.6L253.2 64.0996L245.8 75.6996H283.3C281.1 83.2996 276.8 89.7996 271 94.3996C265.2 98.9996 257.9 101.8 249.4 101.8C238.8 101.8 229.4 97.3996 222.5 90.2996C215.6 83.1996 211.4 73.4996 211.4 62.7996C211.4 52.2996 215.6 42.6996 222.6 35.6996C229.5 28.6996 239.1 24.2996 249.7 24.2996C254.3 24.2996 258.6 24.9996 262.6 26.3996C266.6 27.6996 270.2 29.6996 273.4 32.0996L279.9 21.6996L286.4 11.2996C281.4 7.79959 275.8 4.99962 269.6 3.19962C263.5 1.29962 256.8 0.399597 249.8 0.399597C240.4 0.399597 231.9 2.09962 224.4 5.19962C216.9 8.29962 210.2 12.7996 204.6 18.3996C191.3 31.6996 187.5 45.1996 184.9 57.4996C182.2 69.8996 180.7 81.1996 171.6 90.1996C167.8 93.9996 163.7 96.8996 159.1 98.7996C154.5 100.7 149.6 101.7 144.3 101.7C133.4 101.7 123.6 97.1996 116.4 90.0996C109.3 82.9996 104.9 73.2996 104.9 62.7996C104.9 52.4996 109.3 42.8996 116.4 35.7996C123.5 28.6996 133.3 24.1996 144.3 24.0996C148.9 24.1996 153.1 24.8996 157 26.0996C160.9 27.2996 164.5 29.1996 167.7 31.5996L174.3 21.1996L180.9 10.7996C175.9 7.29959 170.3 4.59959 164.2 2.79959C158.1 0.999591 151.4 0.0996094 144.4 0.0996094C133.6 0.0996094 123.5 2.69959 114.7 7.29959C105.9 11.8996 98.4 18.3996 92.7 26.1996C90.5 19.2996 85.9 13.3996 79.6 9.29959C73.3 5.09959 65.3 2.69962 56.3 2.69962H28.1H0V62.9996V123.1H62C69.8 123.1 76.8 121.2 82.6 118C88.4 114.8 93 110.2 96.2 104.8C102 111.2 109 116.4 117 120C125 123.6 133.9 125.6 143.5 125.6C154.7 125.6 165 123 173.9 118.3C182.8 113.6 190.3 106.9 196.1 98.5996C201.6 106.8 209.1 113.5 218.1 118.2C227 122.9 237.5 125.6 248.7 125.6C266 125.6 281.3 118.6 292.3 107.2C303.3 95.9996 310 80.2996 310 62.9996ZM26.1 51.4996V25.1996H55.8C59.6 25.1996 62.9 26.5996 65.3 28.8996C67.7 31.1996 69.2 34.4996 69.2 38.2996C69.2 42.0996 67.7 45.3996 65.3 47.6996C62.9 50.0996 59.5 51.4996 55.8 51.4996H41H26.1ZM26.1 100.8V73.4996H61.7C65.7 73.4996 69.2 74.9996 71.8 77.3996C74.4 79.7996 76 83.1996 76 87.0996C76 90.9996 74.4 94.3996 71.8 96.8996C69.2 99.3996 65.7 100.9 61.7 100.9H43.9H26.1V100.8Z" fill="#007254"/>
    <path d="M369.3 108.499C369.4 108.699 369.4 108.999 369.4 109.299C369.4 109.599 369.5 109.999 369.5 110.299C369.5 114.099 368.2 117.399 365.9 119.799C363.6 122.199 360.3 123.599 356.5 123.599C352.7 123.599 349.2 122.099 346.7 119.499C344.2 116.999 342.7 113.499 342.7 109.599C342.7 105.699 344.3 102.199 346.8 99.6992C349.3 97.1992 352.8 95.5992 356.7 95.5992C358.3 95.5992 359.8 95.7992 361.2 96.1992C362.6 96.5992 363.9 97.1992 365.1 98.0992L364 99.7992L362.9 101.499C362 100.799 361 100.299 360 99.9992C359 99.6992 357.9 99.4992 356.7 99.4992C354 99.4992 351.6 100.599 349.9 102.299C348.2 103.999 347.1 106.499 347.1 109.399C347.1 112.199 348.1 114.699 349.8 116.499C351.5 118.299 353.8 119.399 356.5 119.399C359 119.399 361 118.599 362.5 117.299C364 115.999 364.9 114.099 365.3 111.999H356.2L357.4 110.099L358.6 108.199L369.3 108.499ZM414.5 123.799C418.4 123.799 421.9 122.199 424.5 119.699C427 117.199 428.6 113.699 428.6 109.899C428.6 106.099 427 102.599 424.5 100.099C422 97.5992 418.4 95.9992 414.5 95.9992C410.6 95.9992 407.1 97.5992 404.6 100.099C402.1 102.599 400.5 106.099 400.5 109.899C400.5 113.699 402.1 117.199 404.6 119.699C407.1 122.199 410.6 123.799 414.5 123.799ZM438.7 96.4992V112.899C438.7 114.799 439.4 116.599 440.6 117.799C441.8 118.999 443.5 119.799 445.5 119.799C447.5 119.799 449.2 118.999 450.4 117.799C451.6 116.599 452.3 114.799 452.3 112.899V96.4992H456.5V112.899C456.5 115.999 455.3 118.699 453.4 120.699C451.4 122.599 448.7 123.799 445.5 123.799C442.3 123.799 439.6 122.599 437.6 120.699C435.6 118.799 434.4 116.099 434.4 112.899V96.4992H438.7ZM386.3 96.4992C389.1 96.4992 391.4 97.3992 393 98.9992C394.6 100.499 395.5 102.699 395.5 105.099C395.5 107.099 394.9 108.799 393.9 110.199C392.9 111.599 391.4 112.599 389.5 112.999L392.7 118.099L395.9 123.199H390.9L387.9 118.399L384.9 113.599H379.8V123.199H375.5V96.4992H386.3ZM474.7 96.4992C477.5 96.4992 479.8 97.4992 481.5 98.9992C483.1 100.599 484 102.699 484 105.199C484 107.599 483.1 109.799 481.5 111.399C479.9 112.999 477.5 113.899 474.7 113.899H468.6V123.199H464.3V96.4992H474.7ZM414.5 119.799C411.8 119.799 409.4 118.699 407.7 116.899C406 115.099 404.9 112.599 404.9 109.899C404.9 107.199 406 104.699 407.7 102.899C409.4 101.099 411.9 99.9992 414.5 99.9992C417.2 99.9992 419.6 101.099 421.4 102.899C423.1 104.699 424.2 107.199 424.2 109.899C424.2 112.699 423.1 115.199 421.4 116.899C419.7 118.699 417.3 119.799 414.5 119.799ZM474.7 110.099C476.1 110.099 477.3 109.599 478.2 108.799C479.1 107.999 479.6 106.799 479.6 105.299C479.6 103.799 479.1 102.699 478.2 101.799C477.3 100.999 476.1 100.499 474.7 100.499H468.6V110.099H474.7ZM386.3 109.699C387.7 109.699 388.8 109.299 389.7 108.499C390.5 107.699 391 106.599 391 105.099C391 103.699 390.5 102.499 389.7 101.699C388.9 100.899 387.7 100.399 386.3 100.399H379.8V109.699H386.3ZM599.8 61.6992C599.9 61.8992 599.9 62.1992 599.9 62.4992C599.9 62.7992 600 63.1992 600 63.4992C600 67.2992 598.7 70.5992 596.4 72.9992C594.1 75.3992 590.8 76.8992 587 76.8992C583.1 76.8992 579.7 75.3992 577.2 72.7992C574.7 70.2992 573.2 66.7992 573.2 62.8992C573.2 58.9992 574.7 55.4992 577.3 52.9992C579.8 50.4992 583.3 48.8992 587.2 48.8992C588.8 48.8992 590.3 49.0992 591.7 49.4992C593.1 49.8992 594.4 50.4992 595.6 51.3992L594.5 53.0992L593.4 54.7992C592.5 54.0992 591.5 53.5992 590.5 53.2992C589.5 52.9992 588.4 52.7992 587.2 52.7992C584.5 52.7992 582.1 53.8992 580.4 55.5992C578.7 57.3992 577.6 59.8992 577.6 62.6992C577.6 65.4992 578.6 67.9992 580.3 69.7992C582 71.5992 584.3 72.6992 587 72.6992C589.5 72.6992 591.5 71.8992 593 70.5992C594.5 69.2992 595.4 67.3992 595.8 65.2992H586.7L587.9 63.3992L589.1 61.4992L599.8 61.6992ZM461.7 49.6992V66.0992C461.7 67.9992 462.4 69.7992 463.6 70.9992C464.8 72.1992 466.5 72.9992 468.5 72.9992C470.5 72.9992 472.2 72.1992 473.4 70.9992C474.6 69.7992 475.3 67.9992 475.3 66.0992V49.6992H479.5V66.0992C479.5 69.1992 478.3 71.8992 476.4 73.8992C474.4 75.7992 471.7 76.9992 468.5 76.9992C465.3 76.9992 462.6 75.7992 460.6 73.8992C458.6 71.9992 457.4 69.2992 457.4 66.0992V49.6992H461.7ZM441.8 76.9992C444.8 76.9992 447.1 76.0992 448.7 74.6992C450.3 73.1992 451.2 71.1992 451.2 68.8992C451.2 66.3992 450.2 64.6992 448.7 63.5992C447.2 62.3992 445.2 61.7992 443.1 61.0992C441.4 60.5992 439.9 60.1992 438.9 59.4992C437.9 58.8992 437.3 58.0992 437.3 56.7992C437.3 55.6992 437.7 54.7992 438.4 54.0992C439.2 53.3992 440.3 52.9992 441.9 52.9992C442.9 52.9992 443.9 53.1992 444.9 53.4992C445.9 53.7992 446.9 54.2992 447.9 54.9992L449 53.2992L450.1 51.5992C449 50.7992 447.8 50.1992 446.5 49.7992C445.1 49.3992 443.7 49.0992 442.1 49.0992C439.3 49.0992 437 49.8992 435.5 51.2992C434 52.6992 433.1 54.6992 433.1 56.9992C433.1 59.5992 434.1 61.1992 435.6 62.2992C437.1 63.3992 439.1 64.0992 441.2 64.6992C442.9 65.1992 444.4 65.6992 445.4 66.2992C446.4 66.8992 447 67.6992 447 68.9992C447 70.0992 446.6 71.0992 445.7 71.7992C444.9 72.4992 443.6 72.8992 441.9 72.8992C440.5 72.8992 439.3 72.5992 438.1 72.1992C436.9 71.6992 435.7 71.0992 434.6 70.3992L433.5 72.0992L432.4 73.7992C433.5 74.5992 434.8 75.3992 436.4 75.9992C437.9 76.5992 439.7 76.9992 441.8 76.9992ZM383.5 76.9992C387.4 76.9992 390.9 75.3992 393.5 72.8992C396 70.3992 397.6 66.8992 397.6 63.0992C397.6 59.2992 396 55.7992 393.5 53.1992C390.9 50.6992 387.4 49.0992 383.5 49.0992C379.6 49.0992 376.1 50.6992 373.6 53.1992C371.1 55.6992 369.5 59.1992 369.5 63.0992C369.5 66.8992 371.1 70.3992 373.6 72.8992C376.1 75.3992 379.6 76.9992 383.5 76.9992ZM342.6 63.0992C342.6 66.9992 344.2 70.4992 346.7 72.9992C349.3 75.4992 352.8 77.0992 356.8 77.0992C358.7 77.0992 360.3 76.7992 361.8 76.2992C363.3 75.7992 364.5 75.0992 365.8 74.0992L364.7 72.3992L363.6 70.6992C362.6 71.4992 361.5 72.0992 360.4 72.4992C359.3 72.8992 358 73.0992 356.7 73.0992C354.1 73.0992 351.7 71.9992 350 70.1992C348.3 68.3992 347.2 65.8992 347.2 63.0992C347.2 60.2992 348.2 57.7992 350 55.9992C351.7 54.1992 354.1 53.0992 356.7 53.0992C358.1 53.0992 359.3 53.2992 360.4 53.6992C361.5 54.0992 362.6 54.6992 363.6 55.4992L364.7 53.7992L365.8 52.0992C364.6 51.1992 363.3 50.3992 361.8 49.8992C360.3 49.3992 358.7 49.0992 356.8 49.0992C352.8 49.0992 349.3 50.5992 346.7 53.1992C344.2 55.6992 342.6 59.1992 342.6 63.0992ZM535.7 76.3992H531.4V49.6992H535.7V76.3992ZM549.3 76.3992H545.2V49.6992H550.5L556.7 59.7992L562.9 69.8992V49.6992H567V76.3992H562L555.6 66.0992L549.2 55.7992V76.3992H549.3ZM524.9 53.6992H516.5V76.3992H512.1V53.6992H503.8V49.6992H524.9V53.6992ZM491.4 72.3992H504.6V76.3992H487.1V49.6992H491.4V72.3992ZM407.8 76.3992H403.7V49.6992H409L415.2 59.7992L421.4 69.8992V49.6992H425.5V76.3992H420.5L414.1 66.0992L407.7 55.7992V76.3992H407.8ZM383.5 72.9992C380.8 72.9992 378.4 71.8992 376.7 70.0992C375 68.2992 373.9 65.7992 373.9 63.0992C373.9 60.2992 375 57.7992 376.7 56.0992C378.4 54.2992 380.9 53.1992 383.5 53.1992C386.2 53.1992 388.6 54.2992 390.4 56.0992C392.1 57.8992 393.2 60.3992 393.2 63.0992C393.2 65.8992 392.1 68.3992 390.4 70.0992C388.6 71.8992 386.2 72.9992 383.5 72.9992ZM461.8 30.0992C465.7 30.0992 469.2 28.4992 471.8 25.9992C474.3 23.4992 475.9 19.9992 475.9 16.1992C475.9 12.3992 474.3 8.89919 471.8 6.29919C469.3 3.79919 465.8 2.19922 461.8 2.19922C457.9 2.19922 454.4 3.79919 451.9 6.29919C449.4 8.79919 447.8 12.2992 447.8 16.1992C447.8 19.9992 449.4 23.4992 451.9 25.9992C454.4 28.5992 457.9 30.0992 461.8 30.0992ZM410.4 30.0992C413.4 30.0992 415.7 29.2992 417.3 27.7992C418.9 26.2992 419.8 24.2992 419.8 21.9992C419.8 19.4992 418.8 17.7992 417.3 16.6992C415.8 15.5992 413.8 14.8992 411.7 14.1992C410 13.6992 408.5 13.2992 407.5 12.5992C406.5 11.9992 405.9 11.1992 405.9 9.8992C405.9 8.7992 406.3 7.89922 407 7.19922C407.8 6.49922 408.9 6.09921 410.5 6.09921C411.5 6.09921 412.5 6.29921 413.5 6.59921C414.5 6.89921 415.5 7.39921 416.5 8.09921L417.6 6.3992L418.7 4.69922C417.6 3.89922 416.4 3.2992 415.1 2.8992C413.7 2.4992 412.3 2.19922 410.7 2.19922C407.9 2.19922 405.6 2.9992 404.1 4.3992C402.6 5.7992 401.7 7.79921 401.7 10.0992C401.7 12.6992 402.7 14.2992 404.2 15.3992C405.7 16.4992 407.7 17.1992 409.8 17.7992C411.5 18.2992 413 18.7992 414 19.3992C415 19.9992 415.6 20.7992 415.6 22.0992C415.6 23.1992 415.2 24.1992 414.3 24.8992C413.5 25.5992 412.2 25.9992 410.5 25.9992C409.1 25.9992 407.9 25.6992 406.7 25.2992C405.5 24.7992 404.3 24.1992 403.2 23.4992L402.1 25.1992L401 26.8992C402.1 27.6992 403.4 28.4992 405 29.0992C406.5 29.7992 408.3 30.0992 410.4 30.0992ZM382.7 30.0992C386.6 30.0992 390.1 28.4992 392.7 25.9992C395.2 23.4992 396.8 19.9992 396.8 16.1992C396.8 12.3992 395.2 8.89919 392.7 6.29919C390.2 3.79919 386.7 2.19922 382.7 2.19922C378.8 2.19922 375.3 3.79919 372.8 6.29919C370.3 8.79919 368.7 12.2992 368.7 16.1992C368.7 19.9992 370.3 23.4992 372.8 25.9992C375.3 28.5992 378.8 30.0992 382.7 30.0992ZM487.3 2.8992L493.5 12.9992L499.7 23.0992V2.8992H503.8V29.5992H498.8L492.4 19.2992L486 8.99921V29.6992H482V2.99921L487.3 2.8992ZM445.1 2.8992V6.8992H436.7V29.5992H432.3V6.8992H424V2.8992H445.1ZM354.5 2.8992C356.9 2.8992 358.9 3.6992 360.4 4.8992C361.9 6.1992 362.8 7.99921 362.8 9.99921C362.8 11.1992 362.5 12.1992 362 13.0992C361.4 13.9992 360.7 14.7992 359.7 15.2992C361 15.8992 362.1 16.7992 362.8 17.8992C363.5 18.9992 363.9 20.2992 363.9 21.6992C363.9 23.8992 363 25.7992 361.5 27.1992C360 28.5992 357.9 29.3992 355.4 29.3992H344V2.69922L354.5 2.8992ZM461.8 26.0992C459.1 26.0992 456.7 24.9992 455 23.1992C453.3 21.3992 452.2 18.8992 452.2 16.1992C452.2 13.4992 453.3 10.8992 455 9.19922C456.7 7.39922 459.2 6.29919 461.8 6.29919C464.5 6.29919 466.9 7.39922 468.7 9.19922C470.4 10.9992 471.5 13.4992 471.5 16.1992C471.5 18.9992 470.4 21.4992 468.7 23.1992C466.9 25.0992 464.5 26.0992 461.8 26.0992ZM382.7 26.0992C380 26.0992 377.6 24.9992 375.9 23.1992C374.2 21.3992 373.1 18.8992 373.1 16.1992C373.1 13.4992 374.2 10.8992 375.9 9.19922C377.6 7.39922 380.1 6.29919 382.7 6.29919C385.4 6.29919 387.8 7.39922 389.6 9.19922C391.3 10.9992 392.4 13.4992 392.4 16.1992C392.4 18.9992 391.3 21.4992 389.6 23.1992C387.8 25.0992 385.4 26.0992 382.7 26.0992ZM355.2 25.6992C356.4 25.6992 357.4 25.2992 358.2 24.4992C358.9 23.7992 359.4 22.7992 359.4 21.6992C359.4 20.5992 359 19.5992 358.2 18.8992C357.4 18.1992 356.4 17.7992 355.2 17.7992H348.3V25.5992L355.2 25.6992ZM354.5 14.1992C355.6 14.1992 356.6 13.7992 357.3 13.0992C358 12.3992 358.4 11.4992 358.4 10.3992C358.4 9.2992 358 8.39922 357.3 7.69922C356.6 6.99922 355.6 6.59921 354.5 6.59921H348.3V14.0992L354.5 14.1992Z" fill="#007254"/>
</svg>
