<svg width="594" height="166" viewBox="0 0 594 166" fill="none" xmlns="http://www.w3.org/2000/svg">
    <path d="M204.159 69.4377H218.581C222.744 69.7819 226.902 68.728 230.398 66.4428C231.706 65.2537 232.721 63.7785 233.364 62.1323C234.008 60.4862 234.262 58.7137 234.107 56.9532C234.118 55.2762 233.791 53.6141 233.145 52.0666C232.472 50.515 231.411 49.163 230.063 48.1413C228.444 46.9462 226.611 46.0728 224.663 45.5684C222.1 44.905 219.46 44.592 216.813 44.638H204.163L204.159 69.4377ZM204.159 40.0903H217.402C219.172 40.0939 220.939 39.9236 222.677 39.5819C224.293 39.2817 225.838 38.6811 227.233 37.8113C228.576 36.9464 229.679 35.7569 230.44 34.353C231.315 32.6315 231.736 30.7148 231.661 28.7851C231.738 26.8859 231.384 24.9938 230.623 23.2517C229.936 21.8376 228.855 20.6522 227.51 19.8383C225.925 18.9277 224.175 18.34 222.362 18.1092C219.972 17.7796 217.562 17.6258 215.15 17.6492H204.184L204.159 40.0903ZM198.59 13.1154H215.634C221.359 12.672 227.085 13.9485 232.079 16.7812C233.838 18.1321 235.23 19.9015 236.129 21.9281C237.028 23.9547 237.405 26.174 237.227 28.3838C237.362 31.1953 236.658 33.9835 235.203 36.3934C233.525 38.6784 231.252 40.4586 228.63 41.5394C231.79 42.8399 234.563 44.9297 236.684 47.6088C238.75 50.4111 239.806 53.8303 239.679 57.3094C239.766 60.0318 239.25 62.7397 238.168 65.2393C237.201 67.3214 235.684 69.1005 233.781 70.3854C231.688 71.743 229.351 72.6825 226.901 73.152C223.969 73.7365 220.986 74.0181 217.997 73.9924H198.597L198.59 13.1154Z" fill="#0F4698"/>
    <path d="M283.124 30.966C282.157 27.0658 280.229 23.4695 277.517 20.5045C276.314 19.284 274.872 18.3248 273.282 17.6868C271.691 17.0489 269.986 16.746 268.273 16.7971C265.527 16.723 262.819 17.4436 260.473 18.8722C258.245 20.3147 256.394 22.2673 255.073 24.568C253.555 27.2144 252.485 30.0938 251.907 33.0893C250.559 39.9962 250.559 47.0985 251.907 54.0054C252.484 57.0041 253.569 59.8824 255.114 62.5163C256.489 64.8454 258.414 66.8013 260.722 68.2122C263.193 69.6419 266.011 70.3601 268.865 70.2872C270.996 70.3473 273.114 69.9302 275.064 69.0664C276.722 68.2988 278.202 67.1939 279.409 65.8225C280.627 64.4144 281.611 62.8193 282.322 61.0984C283.093 59.265 283.729 57.3775 284.224 55.4509L289.451 56.3813C288.927 58.9486 288.12 61.4503 287.047 63.8408C286.072 66.017 284.715 68.0011 283.041 69.6993C281.346 71.37 279.319 72.6661 277.091 73.5034C274.429 74.4536 271.615 74.9084 268.789 74.8453C265.352 74.9085 261.951 74.1422 258.874 72.6112C255.955 71.104 253.438 68.9211 251.534 66.2444C249.426 63.2567 247.869 59.9165 246.936 56.3813C244.8 47.968 244.8 39.1544 246.936 30.7412C247.869 27.2038 249.426 23.8613 251.534 20.8711C253.438 18.1944 255.955 16.0115 258.874 14.5043C261.951 12.9734 265.352 12.2071 268.789 12.2702C271.276 12.2264 273.746 12.6827 276.053 13.612C278.143 14.4855 280.049 15.7456 281.671 17.3263C283.312 18.957 284.666 20.8521 285.677 22.9322C286.759 25.1587 287.628 27.4827 288.272 29.8731L283.124 30.966Z" fill="#0F4698"/>
    <path d="M334.832 30.795C334.389 28.9159 333.737 27.0924 332.888 25.3585C332.084 23.6937 330.999 22.1798 329.681 20.8834C328.365 19.6062 326.819 18.59 325.125 17.8885C323.222 17.1297 321.186 16.7581 319.137 16.7956C316.585 16.7572 314.068 17.3969 311.845 18.6493C309.591 19.9722 307.68 21.8074 306.268 24.0062C304.613 26.5972 303.404 29.4472 302.691 32.4377C301.804 36.0678 301.377 39.7953 301.422 43.5321C301.422 46.7838 301.703 50.0294 302.263 53.2327C302.764 56.2561 303.795 59.1675 305.307 61.8335C306.741 64.3429 308.788 66.4477 311.257 67.9513C314.197 69.6057 317.541 70.407 320.912 70.2649C322.929 70.2934 324.931 69.9073 326.792 69.1306C328.5 68.4082 330.033 67.3293 331.29 65.9663C332.536 64.6004 333.512 63.0102 334.164 61.2802C334.846 59.4616 335.189 57.5334 335.174 55.5913V50.0233H319.822V45.4687H340.744V73.9723H335.935V67.9859H335.766C334.096 70.2424 331.871 72.0293 329.307 73.1734C326.098 74.3992 322.674 74.9627 319.241 74.8299C316.002 74.857 312.8 74.1474 309.876 72.7549C306.967 71.3472 304.423 69.2839 302.446 66.7271C300.225 63.8003 298.581 60.4776 297.603 56.9365C296.383 52.5739 295.8 48.0579 295.873 43.5286C295.8 38.9901 296.428 34.4675 297.734 30.1206C298.794 26.5699 300.509 23.2492 302.792 20.33C304.811 17.7826 307.378 15.7223 310.302 14.3022C313.17 12.922 316.314 12.2124 319.497 12.2272C322.114 12.1956 324.716 12.6373 327.176 13.5309C329.405 14.3598 331.463 15.5906 333.248 17.1622C335.017 18.7441 336.488 20.6298 337.592 22.7301C338.77 24.967 339.607 27.3669 340.076 29.8508L334.832 30.795Z" fill="#0F4698"/>
    <path d="M211.488 118.813H218.331C220.827 118.813 223.221 117.822 224.986 116.057C226.752 114.293 227.743 111.899 227.743 109.403C227.743 106.908 226.752 104.514 224.986 102.749C223.221 100.985 220.827 99.9933 218.331 99.9933H211.498L211.488 118.813ZM198.758 156.08V89.473H217.123C223.428 88.9747 229.693 90.8344 234.704 94.6916C238.408 98.6962 240.466 103.95 240.466 109.405C240.466 114.86 238.408 120.114 234.704 124.119C229.69 127.97 223.426 129.826 217.123 129.33H211.492V156.08H198.758Z" fill="#0F4698"/>
    <path d="M248.399 156.082V89.4746H261.129V144.825H281.615V156.079L248.399 156.082Z" fill="#0F4698"/>
    <path d="M306.717 130.812H319.357L313.175 103.875H312.978L306.717 130.812ZM288.538 156.089L305.056 89.4814H321.388L337.446 156.089H325.265L322.034 142.069H304.392L300.791 156.089H288.538Z" fill="#0F4698"/>
    <path d="M378.358 89.4815V100.728H363.483V156.079H350.753V100.728H335.902V89.4746L378.358 89.4815Z" fill="#0F4698"/>
    <path d="M402.591 89.4775H389.86V156.085H402.591V89.4775Z" fill="#0F4698"/>
    <path d="M416.008 156.082V89.4746H429.938L447.664 128.958H447.844V89.4746H459.474V156.082H447.294L427.821 113.095H427.635V156.082H416.008Z" fill="#0F4698"/>
    <path d="M485.62 89.4775H472.89V156.085H485.62V89.4775Z" fill="#0F4698"/>
    <path d="M509.937 136.336C509.772 137.668 509.885 139.02 510.266 140.306C510.648 141.592 511.29 142.786 512.154 143.813C513.935 145.072 516.063 145.747 518.244 145.747C520.425 145.747 522.553 145.072 524.334 143.813C525.198 142.786 525.841 141.592 526.222 140.306C526.604 139.02 526.716 137.668 526.552 136.336V109.223C526.714 107.892 526.601 106.541 526.22 105.254C525.839 103.968 525.197 102.774 524.334 101.746C522.553 100.488 520.425 99.8125 518.244 99.8125C516.063 99.8125 513.935 100.488 512.154 101.746C511.292 102.774 510.65 103.968 510.268 105.254C509.887 106.541 509.774 107.892 509.937 109.223V136.336ZM497.206 110.88C497.112 107.341 497.644 103.814 498.777 100.46C499.673 97.8632 501.158 95.509 503.115 93.5812C505.001 91.8076 507.273 90.4969 509.753 89.7527C515.3 88.1566 521.185 88.1566 526.731 89.7527C529.214 90.4949 531.49 91.8059 533.377 93.5812C535.334 95.509 536.819 97.8632 537.715 100.46C538.844 103.815 539.375 107.341 539.285 110.88V134.677C539.376 138.218 538.844 141.749 537.715 145.107C536.818 147.7 535.334 150.051 533.377 151.975C531.492 153.753 529.216 155.065 526.731 155.804C521.186 157.411 515.298 157.411 509.753 155.804C507.272 155.062 504.999 153.751 503.115 151.975C501.158 150.051 499.673 147.7 498.777 145.107C497.644 141.75 497.112 138.219 497.206 134.677V110.88Z" fill="#0F4698"/>
    <path d="M582.083 89.4814V128.958H581.896L564.188 89.4814H550.257V156.079H561.881V113.098H562.067L581.54 156.079H593.713V89.4814H582.083Z" fill="#0F4698"/>
    <path d="M95.5833 165.106L124.296 83.2054L82.8428 65.5264L95.5833 165.106Z" fill="#7997C4"/>
    <path d="M95.6012 165.106L82.8607 65.5266L0 32.7969L95.6012 165.106Z" fill="#0F4698"/>
    <path d="M124.325 83.2056L95.6123 165.106L174.986 32.7969L124.325 83.2056Z" fill="#CDE0F1"/>
    <path d="M82.8599 65.5093L174.971 32.79L124.295 83.2021L82.8599 65.5093Z" fill="white"/>
    <path d="M92.1538 0L0.00830078 32.8022L82.8621 65.5215L174.983 32.8022L92.1953 0H92.1538Z" fill="#5C86C5"/>
    <path d="M0.00683594 32.7969L82.8675 65.5265L174.978 32.7969H0.00683594Z" fill="#8AA8D4"/>
</svg>
