<svg width="594" height="166" viewBox="0 0 594 166" fill="none" xmlns="http://www.w3.org/2000/svg">
    <path d="M204.158 69.4377H218.58C222.743 69.7819 226.901 68.728 230.397 66.4428C231.705 65.2537 232.72 63.7785 233.363 62.1323C234.007 60.4862 234.261 58.7137 234.106 56.9532C234.117 55.2762 233.79 53.6141 233.144 52.0666C232.471 50.515 231.41 49.163 230.062 48.1413C228.443 46.9462 226.61 46.0728 224.662 45.5684C222.099 44.905 219.459 44.592 216.812 44.638H204.162L204.158 69.4377ZM204.158 40.0903H217.401C219.172 40.0939 220.938 39.9236 222.676 39.5819C224.292 39.2817 225.837 38.6811 227.232 37.8113C228.575 36.9464 229.678 35.7569 230.439 34.353C231.314 32.6315 231.735 30.7148 231.66 28.7851C231.737 26.8859 231.383 24.9938 230.622 23.2517C229.935 21.8376 228.854 20.6522 227.509 19.8383C225.924 18.9277 224.174 18.34 222.361 18.1092C219.972 17.7796 217.561 17.6259 215.149 17.6492H204.183L204.158 40.0903ZM198.589 13.1154H215.633C221.358 12.672 227.084 13.9485 232.078 16.7812C233.837 18.1321 235.229 19.9015 236.128 21.9281C237.027 23.9547 237.405 26.174 237.226 28.3838C237.361 31.1953 236.657 33.9835 235.202 36.3934C233.524 38.6784 231.251 40.4586 228.629 41.5394C231.789 42.8399 234.562 44.9297 236.683 47.6088C238.749 50.4111 239.805 53.8303 239.678 57.3094C239.765 60.0318 239.249 62.7397 238.167 65.2393C237.2 67.3214 235.683 69.1005 233.78 70.3854C231.687 71.7431 229.35 72.6825 226.9 73.152C223.968 73.7365 220.985 74.0181 217.996 73.9924H198.596L198.589 13.1154Z" fill="black"/>
    <path d="M283.124 30.966C282.157 27.0658 280.229 23.4695 277.516 20.5045C276.314 19.284 274.872 18.3248 273.281 17.6868C271.691 17.0489 269.986 16.746 268.273 16.7971C265.527 16.723 262.818 17.4436 260.472 18.8722C258.245 20.3147 256.394 22.2673 255.072 24.568C253.554 27.2144 252.484 30.0938 251.907 33.0893C250.558 39.9962 250.558 47.0985 251.907 54.0054C252.484 57.0041 253.568 59.8824 255.114 62.5163C256.488 64.8454 258.414 66.8013 260.721 68.2122C263.192 69.6419 266.011 70.3601 268.864 70.2872C270.996 70.3473 273.114 69.9302 275.063 69.0664C276.722 68.2988 278.201 67.1939 279.408 65.8224C280.627 64.4144 281.61 62.8193 282.321 61.0984C283.093 59.265 283.729 57.3774 284.224 55.4509L289.451 56.3813C288.926 58.9486 288.12 61.4503 287.046 63.8408C286.072 66.017 284.715 68.0011 283.041 69.6992C281.346 71.37 279.319 72.6661 277.091 73.5034C274.428 74.4536 271.615 74.9084 268.788 74.8453C265.352 74.9085 261.951 74.1422 258.874 72.6112C255.955 71.104 253.438 68.9211 251.533 66.2444C249.425 63.2567 247.868 59.9165 246.936 56.3813C244.799 47.968 244.799 39.1544 246.936 30.7412C247.868 27.2038 249.425 23.8613 251.533 20.8711C253.438 18.1944 255.955 16.0115 258.874 14.5043C261.951 12.9734 265.352 12.2071 268.788 12.2702C271.275 12.2264 273.746 12.6827 276.053 13.612C278.143 14.4855 280.049 15.7456 281.671 17.3263C283.311 18.957 284.665 20.8521 285.677 22.9322C286.759 25.1587 287.628 27.4827 288.271 29.8731L283.124 30.966Z" fill="black"/>
    <path d="M334.833 30.7959C334.39 28.9169 333.738 27.0934 332.889 25.3595C332.085 23.6946 331 22.1808 329.682 20.8844C328.366 19.6072 326.82 18.5909 325.126 17.8895C323.223 17.1306 321.187 16.7591 319.138 16.7966C316.586 16.7582 314.069 17.3979 311.846 18.6503C309.592 19.9732 307.681 21.8084 306.269 24.0072C304.614 26.5982 303.405 29.4482 302.692 32.4387C301.805 36.0687 301.378 39.7963 301.423 43.533C301.423 46.7847 301.704 50.0303 302.264 53.2336C302.765 56.257 303.796 59.1685 305.308 61.8345C306.742 64.3439 308.789 66.4487 311.258 67.9522C314.198 69.6067 317.542 70.408 320.913 70.2659C322.93 70.2944 324.932 69.9083 326.793 69.1315C328.501 68.4091 330.034 67.3303 331.29 65.9672C332.537 64.6014 333.513 63.0111 334.165 61.2812C334.847 59.4626 335.19 57.5344 335.175 55.5922V50.0243H319.823V45.4697H340.745V73.9733H335.936V67.9869H335.767C334.097 70.2433 331.872 72.0303 329.308 73.1744C326.099 74.4001 322.675 74.9636 319.242 74.8309C316.003 74.858 312.801 74.1484 309.877 72.7559C306.968 71.3482 304.424 69.2849 302.447 66.7281C300.226 63.8013 298.582 60.4786 297.604 56.9374C296.384 52.5748 295.801 48.0588 295.874 43.5295C295.801 38.9911 296.429 34.4685 297.735 30.1215C298.795 26.5709 300.51 23.2501 302.793 20.331C304.812 17.7835 307.379 15.7233 310.303 14.3032C313.171 12.923 316.315 12.2134 319.498 12.2281C322.115 12.1966 324.717 12.6383 327.177 13.5319C329.406 14.3607 331.464 15.5916 333.248 17.1632C335.018 18.7451 336.489 20.6308 337.593 22.7311C338.771 24.9679 339.608 27.3679 340.077 29.8518L334.833 30.7959Z" fill="black"/>
    <path d="M211.488 118.813H218.331C220.827 118.813 223.221 117.822 224.986 116.057C226.752 114.293 227.743 111.899 227.743 109.403C227.743 106.908 226.752 104.514 224.986 102.749C223.221 100.985 220.827 99.9933 218.331 99.9933H211.498L211.488 118.813ZM198.758 156.08V89.473H217.123C223.428 88.9747 229.693 90.8344 234.703 94.6916C238.408 98.6962 240.466 103.95 240.466 109.405C240.466 114.86 238.408 120.114 234.703 124.119C229.69 127.97 223.426 129.826 217.123 129.33H211.492V156.08H198.758Z" fill="black"/>
    <path d="M248.399 156.082V89.4746H261.129V144.825H281.615V156.079L248.399 156.082Z" fill="black"/>
    <path d="M306.716 130.812H319.357L313.175 103.875H312.978L306.716 130.812ZM288.538 156.089L305.056 89.4814H321.387L337.445 156.089H325.265L322.034 142.069H304.392L300.79 156.089H288.538Z" fill="black"/>
    <path d="M378.358 89.4815V100.728H363.483V156.079H350.753V100.728H335.902V89.4746L378.358 89.4815Z" fill="black"/>
    <path d="M402.591 89.4775H389.86V156.085H402.591V89.4775Z" fill="black"/>
    <path d="M416.008 156.082V89.4746H429.939L447.664 128.958H447.844V89.4746H459.474V156.082H447.294L427.822 113.095H427.635V156.082H416.008Z" fill="black"/>
    <path d="M485.621 89.4775H472.891V156.085H485.621V89.4775Z" fill="black"/>
    <path d="M509.936 136.336C509.772 137.668 509.884 139.02 510.266 140.306C510.647 141.592 511.29 142.786 512.154 143.813C513.935 145.072 516.063 145.747 518.244 145.747C520.425 145.747 522.552 145.072 524.334 143.813C525.198 142.786 525.84 141.592 526.222 140.306C526.603 139.02 526.715 137.668 526.551 136.336V109.223C526.714 107.892 526.601 106.541 526.22 105.254C525.838 103.968 525.196 102.774 524.334 101.746C522.552 100.488 520.425 99.8125 518.244 99.8125C516.063 99.8125 513.935 100.488 512.154 101.746C511.291 102.774 510.649 103.968 510.268 105.254C509.886 106.541 509.773 107.892 509.936 109.223V136.336ZM497.206 110.88C497.112 107.341 497.643 103.814 498.776 100.46C499.673 97.8632 501.157 95.509 503.114 93.5812C505 91.8076 507.273 90.4969 509.753 89.7527C515.3 88.1566 521.184 88.1566 526.731 89.7527C529.214 90.4949 531.489 91.8059 533.376 93.5812C535.334 95.509 536.818 97.8632 537.714 100.46C538.843 103.815 539.375 107.341 539.285 110.88V134.677C539.375 138.218 538.844 141.749 537.714 145.107C536.818 147.7 535.333 150.051 533.376 151.975C531.491 153.753 529.215 155.065 526.731 155.804C521.186 157.411 515.298 157.411 509.753 155.804C507.272 155.062 504.998 153.751 503.114 151.975C501.158 150.051 499.673 147.7 498.776 145.107C497.643 141.75 497.112 138.219 497.206 134.677V110.88Z" fill="black"/>
    <path d="M582.083 89.4814V128.958H581.896L564.188 89.4814H550.257V156.079H561.881V113.098H562.067L581.54 156.079H593.713V89.4814H582.083Z" fill="black"/>
    <path d="M95.5843 165.105L124.297 83.2044L82.8438 65.5254L95.5843 165.105Z" fill="#707070"/>
    <path d="M95.6012 165.105L82.8607 65.5256L0 32.7959L95.6012 165.105Z" fill="black"/>
    <path d="M124.324 83.2046L95.6118 165.105L174.986 32.7959L124.324 83.2046Z" fill="#D1D4D4"/>
    <path d="M82.8608 65.5084L174.972 32.7891L124.296 83.2012L82.8608 65.5084Z" fill="white"/>
    <path d="M92.1519 0L0.00634766 32.8022L82.8602 65.5215L174.981 32.8022L92.1934 0H92.1519Z" fill="#0ACC8F"/>
    <path d="M0.00683594 32.7959L82.8675 65.5256L174.978 32.7959H0.00683594Z" fill="#8AD9BD"/>
</svg>
