<svg width="591" height="166" viewBox="0 0 591 166" fill="none" xmlns="http://www.w3.org/2000/svg">
    <path d="M202.915 69.4377H217.249C221.387 69.7819 225.52 68.728 228.994 66.4428C230.294 65.2537 231.303 63.7785 231.943 62.1323C232.582 60.4862 232.834 58.7137 232.68 56.9532C232.692 55.2762 232.367 53.6141 231.724 52.0666C231.056 50.5149 230.001 49.163 228.661 48.1413C227.052 46.9462 225.23 46.0728 223.294 45.5684C220.747 44.905 218.123 44.592 215.492 44.638H202.919L202.915 69.4377ZM202.915 40.0903H216.077C217.837 40.0939 219.593 39.9236 221.32 39.5819C222.926 39.2817 224.462 38.6811 225.848 37.8113C227.183 36.9464 228.279 35.7569 229.036 34.353C229.906 32.6315 230.324 30.7148 230.249 28.7851C230.327 26.8859 229.974 24.9938 229.218 23.2517C228.535 21.8376 227.461 20.6522 226.124 19.8383C224.548 18.9277 222.81 18.34 221.007 18.1092C218.632 17.7796 216.236 17.6259 213.839 17.6492H202.94L202.915 40.0903ZM197.38 13.1154H214.32C220.01 12.672 225.702 13.9485 230.665 16.7812C232.413 18.1321 233.797 19.9015 234.69 21.9281C235.584 23.9547 235.959 26.174 235.781 28.3838C235.916 31.1953 235.216 33.9835 233.77 36.3934C232.103 38.6784 229.843 40.4586 227.237 41.5394C230.378 42.8399 233.134 44.9297 235.242 47.6088C237.295 50.4111 238.345 53.8303 238.219 57.3094C238.305 60.0318 237.792 62.7397 236.717 65.2393C235.756 67.3214 234.248 69.1005 232.357 70.3854C230.276 71.743 227.954 72.6825 225.518 73.152C222.605 73.7365 219.639 74.0181 216.668 73.9924H197.387L197.38 13.1154Z" fill="#0F4698"/>
    <path d="M281.399 30.966C280.438 27.0658 278.522 23.4695 275.826 20.5045C274.631 19.284 273.198 18.3248 271.617 17.6868C270.036 17.0489 268.341 16.746 266.639 16.7971C263.91 16.723 261.218 17.4436 258.886 18.8722C256.672 20.3147 254.832 22.2673 253.519 24.568C252.01 27.2144 250.947 30.0938 250.373 33.0893C249.032 39.9962 249.032 47.0985 250.373 54.0054C250.946 57.0041 252.024 59.8824 253.56 62.5163C254.926 64.8454 256.84 66.8013 259.133 68.2122C261.589 69.6419 264.39 70.3601 267.227 70.2872C269.346 70.3473 271.451 69.9302 273.388 69.0664C275.036 68.2988 276.507 67.1939 277.707 65.8225C278.918 64.4144 279.895 62.8193 280.602 61.0984C281.369 59.265 282.001 57.3775 282.493 55.4509L287.688 56.3813C287.166 58.9487 286.365 61.4503 285.298 63.8408C284.329 66.017 282.981 68.0011 281.317 69.6993C279.632 71.37 277.617 72.6661 275.403 73.5034C272.757 74.4536 269.96 74.9084 267.151 74.8453C263.736 74.9085 260.356 74.1422 257.297 72.6112C254.396 71.104 251.894 68.9211 250.001 66.2444C247.906 63.2567 246.359 59.9165 245.432 56.3813C243.308 47.968 243.308 39.1544 245.432 30.7412C246.359 27.2038 247.906 23.8613 250.001 20.8711C251.894 18.1944 254.396 16.0115 257.297 14.5043C260.356 12.9734 263.736 12.2071 267.151 12.2702C269.623 12.2264 272.079 12.6827 274.372 13.612C276.449 14.4855 278.343 15.7456 279.955 17.3263C281.586 18.957 282.932 20.8521 283.937 22.9322C285.012 25.1587 285.876 27.4827 286.515 29.8731L281.399 30.966Z" fill="#0F4698"/>
    <path d="M332.792 30.795C332.352 28.9159 331.704 27.0924 330.86 25.3585C330.061 23.6937 328.983 22.1798 327.673 20.8834C326.365 19.6062 324.829 18.59 323.145 17.8885C321.253 17.1297 319.229 16.7581 317.193 16.7956C314.656 16.7572 312.155 17.3969 309.945 18.6493C307.705 19.9722 305.806 21.8074 304.403 24.0062C302.758 26.5972 301.556 29.4472 300.848 32.4377C299.965 36.0678 299.541 39.7953 299.586 43.5321C299.586 46.7838 299.866 50.0294 300.421 53.2327C300.92 56.2561 301.944 59.1675 303.447 61.8335C304.872 64.3429 306.907 66.4477 309.361 67.9513C312.283 69.6057 315.606 70.407 318.957 70.2649C320.962 70.2934 322.951 69.9073 324.802 69.1306C326.499 68.4082 328.023 67.3293 329.271 65.9663C330.51 64.6004 331.48 63.0102 332.129 61.2802C332.807 59.4616 333.147 57.5334 333.133 55.5913V50.0233H317.874V45.4687H338.668V73.9723H333.889V67.9859H333.721C332.061 70.2424 329.85 72.0293 327.301 73.1734C324.112 74.3992 320.708 74.9627 317.296 74.8299C314.077 74.857 310.895 74.1474 307.989 72.7549C305.097 71.3472 302.569 69.2839 300.604 66.7271C298.396 63.8003 296.763 60.4776 295.79 56.9365C294.578 52.5739 293.999 48.0579 294.071 43.5286C293.998 38.9901 294.622 34.4675 295.921 30.1206C296.974 26.5699 298.679 23.2492 300.947 20.33C302.954 17.7826 305.505 15.7223 308.412 14.3022C311.262 12.922 314.387 12.2124 317.551 12.2272C320.152 12.1956 322.738 12.6373 325.183 13.5309C327.399 14.3598 329.444 15.5906 331.218 17.1622C332.976 18.7441 334.438 20.6298 335.536 22.7301C336.706 24.967 337.538 27.3669 338.005 29.8508L332.792 30.795Z" fill="#0F4698"/>
    <path d="M210.2 118.813H217C219.482 118.813 221.861 117.822 223.616 116.057C225.37 114.293 226.356 111.899 226.356 109.403C226.356 106.908 225.37 104.514 223.616 102.749C221.861 100.985 219.482 99.9933 217 99.9933H210.21L210.2 118.813ZM197.547 156.08V89.473H215.801C222.067 88.9747 228.293 90.8344 233.274 94.6916C236.956 98.6962 239.001 103.95 239.001 109.405C239.001 114.86 236.956 120.114 233.274 124.119C228.291 127.97 222.065 129.826 215.801 129.33H210.203V156.08H197.547Z" fill="#0F4698"/>
    <path d="M246.886 156.082V89.4746H259.538V144.825H279.9V156.079L246.886 156.082Z" fill="#0F4698"/>
    <path d="M304.848 130.812H317.411L311.267 103.875H311.071L304.848 130.812ZM286.78 156.089L303.198 89.4814H319.43L335.39 156.089H323.284L320.073 142.069H302.538L298.958 156.089H286.78Z" fill="#0F4698"/>
    <path d="M376.053 89.4815V100.728H361.269V156.079H348.616V100.728H333.856V89.4746L376.053 89.4815Z" fill="#0F4698"/>
    <path d="M400.138 89.4775H387.485V156.085H400.138V89.4775Z" fill="#0F4698"/>
    <path d="M413.474 156.082V89.4746H427.319L444.937 128.958H445.116V89.4746H456.675V156.082H444.569L425.215 113.095H425.029V156.082H413.474Z" fill="#0F4698"/>
    <path d="M482.662 89.4775H470.009V156.085H482.662V89.4775Z" fill="#0F4698"/>
    <path d="M506.83 136.336C506.667 137.668 506.779 139.02 507.158 140.306C507.537 141.592 508.176 142.786 509.034 143.813C510.805 145.072 512.919 145.747 515.087 145.747C517.255 145.747 519.37 145.072 521.14 143.813C521.999 142.786 522.637 141.592 523.016 140.306C523.396 139.02 523.507 137.668 523.344 136.336V109.223C523.506 107.892 523.393 106.541 523.014 105.254C522.635 103.968 521.997 102.774 521.14 101.746C519.37 100.488 517.255 99.8125 515.087 99.8125C512.919 99.8125 510.805 100.488 509.034 101.746C508.177 102.774 507.539 103.968 507.16 105.254C506.781 106.541 506.668 107.892 506.83 109.223V136.336ZM494.178 110.88C494.084 107.341 494.612 103.814 495.738 100.46C496.629 97.8632 498.105 95.509 500.05 93.5812C501.924 91.8076 504.183 90.4969 506.648 89.7527C512.161 88.1566 518.01 88.1566 523.523 89.7527C525.99 90.4949 528.252 91.8059 530.128 93.5812C532.073 95.509 533.549 97.8632 534.439 100.46C535.561 103.815 536.09 107.341 536 110.88V134.677C536.09 138.218 535.561 141.749 534.439 145.107C533.548 147.7 532.072 150.051 530.128 151.975C528.254 153.753 525.992 155.065 523.523 155.804C518.011 157.411 512.159 157.411 506.648 155.804C504.182 155.062 501.922 153.751 500.05 151.975C498.105 150.051 496.629 147.7 495.738 145.107C494.612 141.75 494.084 138.219 494.178 134.677V110.88Z" fill="#0F4698"/>
    <path d="M578.537 89.4814V128.958H578.351L560.751 89.4814H546.905V156.079H558.457V113.098H558.643L577.997 156.079H590.096V89.4814H578.537Z" fill="#0F4698"/>
    <path d="M95.0013 165.106L123.539 83.2054L82.3384 65.5264L95.0013 165.106Z" fill="#7997C4"/>
    <path d="M95.0188 165.106L82.3559 65.5266L0 32.7969L95.0188 165.106Z" fill="#0F4698"/>
    <path d="M123.567 83.2056L95.0298 165.106L173.92 32.7969L123.567 83.2056Z" fill="#CDE0F1"/>
    <path d="M82.355 65.5093L173.905 32.79L123.538 83.2021L82.355 65.5093Z" fill="white"/>
    <path d="M91.5924 0L0.00830078 32.8022L82.3573 65.5215L173.917 32.8022L91.6337 0H91.5924Z" fill="#5C86C5"/>
    <path d="M0.00683594 32.7969L82.3627 65.5266L173.912 32.7969H0.00683594Z" fill="#8AA8D4"/>
</svg>
