<svg width="103" height="50" viewBox="0 0 103 50" fill="none" xmlns="http://www.w3.org/2000/svg">
<g clip-path="url(#clip0_922_256)">
<path d="M46.5455 0L0 17.5455L46.5455 9.09091V0Z" fill="#FFE600"/>
<path d="M31.1819 24.5454L27.2728 32.2727L23.2728 24.5454H15.4546L23.7273 38.8182V48.0909H30.7273V38.8182L38.9091 24.5454H31.1819Z" fill="black"/>
<path d="M7 38.8182H15.4545V33.9091H7V30H16.3636L13.2727 24.5454H0V48.0909H18.7273V42.7273H7V38.8182Z" fill="black"/>
<path d="M90.7273 47.1818C90.3637 47.1818 89.9091 46.9091 89.9091 45.7273C89.9091 44.6364 90.3637 44.4545 90.7273 44.4545C91.1818 44.4545 91.3637 44.7273 91.5455 44.9091V46.7273C91.3637 47 91.0909 47.1818 90.7273 47.1818ZM91.5455 43.9091C91.2727 43.6364 90.9091 43.4545 90.5455 43.4545C89.4546 43.4545 88.7273 44.3636 88.7273 45.8182C88.7273 47.3636 89.3637 48.2727 90.4546 48.2727C90.8182 48.2727 91.1818 48.0909 91.4546 47.8182V48.1818H92.5455V41.7273L91.4546 42.2727L91.5455 43.9091Z" fill="black"/>
<path d="M86.8184 42.1818L87.9093 41.6364V44V48.1818H86.8184V42.1818Z" fill="black"/>
<path d="M86.0002 44.8182C85.7275 44.7273 85.4548 44.5454 85.182 44.5454C84.6366 44.5454 84.3639 44.9091 84.3639 45.6363V48.1818H83.2729V43.6363H84.3639V44C84.6366 43.6363 85.0002 43.5454 85.3639 43.5454C85.6366 43.5454 86.0002 43.6363 86.182 43.8182L86.0002 44.8182Z" fill="black"/>
<path d="M80.5455 47.1818C80 47.1818 79.6364 46.6363 79.6364 45.8182C79.6364 45 80 44.4545 80.5455 44.4545C81.0909 44.4545 81.4546 45 81.4546 45.8182C81.4546 46.6363 81.0909 47.1818 80.5455 47.1818ZM80.5455 43.4545C79.3637 43.4545 78.4546 44.4545 78.4546 45.8182C78.4546 47.1818 79.3637 48.1818 80.5455 48.1818C81.7273 48.1818 82.6364 47.1818 82.6364 45.8182C82.5455 44.4545 81.7273 43.4545 80.5455 43.4545Z" fill="black"/>
<path d="M77.091 43.5454H78.1819L76.9092 48.0909H75.9092L75.4546 46.2727C75.3637 45.9091 75.2728 45.5454 75.1819 45.2727C75.1819 45.4545 75.0001 46 74.9092 46.2727L74.4546 48.1818H73.4546L72.1819 43.6363H73.3637L73.8182 45.3636C73.9092 45.6363 74.0001 46.1818 74.091 46.4545C74.1819 46.0909 74.2728 45.6363 74.3637 45.2727L74.8182 43.5454H75.8182L76.2728 45.2727C76.3637 45.5454 76.4546 46.0909 76.5455 46.4545C76.6364 46.1818 76.7273 45.7273 76.8182 45.2727L77.091 43.5454Z" fill="black"/>
<path d="M68.3638 44.9091V46.7273C68.182 47 68.0002 47.1818 67.5457 47.1818C67.182 47.1818 66.7275 46.9091 66.7275 45.7273C66.7275 44.6363 67.182 44.4545 67.5457 44.4545C68.0002 44.4545 68.2729 44.7273 68.3638 44.9091ZM68.3638 43.9091C68.0911 43.6363 67.7275 43.4545 67.3638 43.4545C66.2729 43.4545 65.5457 44.3636 65.5457 45.8182C65.5457 47.3636 66.182 48.2727 67.2729 48.2727C67.6366 48.2727 68.0002 48.0909 68.2729 47.8182V47.9091C68.2729 48.4545 68.2729 49.0909 66.8184 49.0909H66.7275L67.0911 50C68.5457 50 69.2729 49.2727 69.2729 47.7273V43.5454H68.182V43.9091H68.3638Z" fill="black"/>
<path d="M62.0001 48.1818H60.9092V43.6363H62.0001V44C62.2728 43.7273 62.6365 43.5454 63.1819 43.5454C64.2728 43.5454 64.8183 44.2727 64.8183 45.6363V48.1818H63.7274V45.6363C63.7274 44.9091 63.4546 44.5454 62.9092 44.5454C62.3637 44.5454 62.091 44.9091 62.091 45.6363V48.1818H62.0001Z" fill="black"/>
<path d="M59.9093 42.3636V42.9091H58.8184V41.8182H59.9093V42.3636Z" fill="black"/>
<path d="M58.7273 43.5454H59.8182V45.5454V48.1818H58.7273V43.5454Z" fill="black"/>
<path d="M56.6364 45.0909L58 48.1818H56.7273L55.7273 46.0909L55.0909 46.8182V48.1818H54V42.2727L55.0909 41.7273V45.3636C55.2727 45.1818 55.3636 44.9091 55.5455 44.8182L56.4545 43.6364H57.7273L56.6364 45.0909Z" fill="black"/>
<path d="M53.3637 44.8182C53.1818 44.6363 52.9091 44.5454 52.6364 44.5454C52.0909 44.5454 51.8182 44.9091 51.8182 45.6363V48.1818H50.7273V43.6363H51.8182V44C52.0909 43.6363 52.4546 43.5454 52.8182 43.5454C53.0909 43.5454 53.4546 43.6363 53.6364 43.8182L53.3637 44.8182Z" fill="black"/>
<path d="M47.9093 47.1818C47.3638 47.1818 47.0002 46.6363 47.0002 45.8182C47.0002 45 47.3638 44.4545 47.9093 44.4545C48.4547 44.4545 48.8184 45 48.8184 45.8182C48.8184 46.6363 48.4547 47.1818 47.9093 47.1818ZM47.9093 43.4545C46.7274 43.4545 45.8184 44.4545 45.8184 45.8182C45.8184 47.1818 46.7274 48.1818 47.9093 48.1818C49.0911 48.1818 50.0002 47.1818 50.0002 45.8182C50.0002 44.4545 49.0911 43.4545 47.9093 43.4545Z" fill="black"/>
<path d="M44.4547 43.5454H45.5456L44.2728 48.0909H43.2728L42.7274 46.1818C42.6365 45.8182 42.5456 45.4545 42.4547 45.1818C42.4547 45.3636 42.2728 45.9091 42.1819 46.1818L41.8183 48.0909H40.9092L39.6365 43.5454H40.8183L41.2728 45.2727C41.3638 45.5454 41.4547 46.0909 41.5456 46.3636C41.6365 46 41.7274 45.5454 41.8183 45.1818L42.2728 43.4545H43.2728L43.7274 45.1818C43.8183 45.4545 43.9092 46 44.0001 46.3636C44.091 46.0909 44.1819 45.6363 44.2728 45.1818L44.4547 43.5454Z" fill="black"/>
<path d="M102.454 36.8182C102.273 36.6363 102 36.5454 101.727 36.5454C101.182 36.5454 100.909 36.9091 100.909 37.6363V40.0909H99.8181V35.5454H100.909V35.9091C101.182 35.5454 101.545 35.4545 101.909 35.4545C102.182 35.4545 102.545 35.5454 102.727 35.7273L102.454 36.8182Z" fill="black"/>
<path d="M96.2726 37.3636C96.2726 36.8182 96.6363 36.4545 97.0908 36.4545C97.7272 36.4545 97.909 36.9091 97.909 37.3636H96.2726ZM98.0908 38.8182C97.909 39 97.6363 39.1818 97.1817 39.1818C96.9999 39.1818 96.2726 39.0909 96.1817 38.1818H98.9999C98.9999 38.0909 98.9999 37.9091 98.9999 37.8182C98.9999 36.3636 98.2726 35.4545 97.0908 35.4545C95.909 35.4545 95.0908 36.4545 95.0908 37.8182C95.0908 39.2727 95.909 40.1818 97.2726 40.1818C97.909 40.1818 98.4545 39.9091 98.909 39.4545L98.0908 38.8182Z" fill="black"/>
<path d="M93.5455 38.5454C93.5455 38.9091 93.7273 39.1818 94 39.1818C94.2727 39.1818 94.4546 39.0909 94.6364 39L94.5455 40C94.2727 40.1818 94 40.1818 93.6364 40.1818C92.7273 40.1818 92.4546 39.4545 92.4546 38.8182V36.6364H91.7273V35.5454H92.4546V34.3636L93.5455 33.8182V35.5454H94.5455V36.6364H93.5455C93.5455 36.6364 93.5455 38.5454 93.5455 38.5454Z" fill="black"/>
<path d="M91.3636 40C91.0909 40.1818 90.8181 40.1818 90.4545 40.1818C89.5454 40.1818 89.2727 39.4545 89.2727 38.8182V36.6364H88.5454V35.5454H89.2727V34.3636L90.3636 33.8182V35.5454H91.3636V36.6364H90.3636V38.5454C90.3636 38.9091 90.5454 39.1818 90.8181 39.1818C91.0909 39.1818 91.2727 39.0909 91.4545 39L91.3636 40Z" fill="black"/>
<path d="M85.3636 37.3636C85.3636 36.8182 85.7273 36.4545 86.1818 36.4545C86.8182 36.4545 87 36.9091 87 37.3636H85.3636ZM87.2727 38.8182C87.0909 39 86.8182 39.1818 86.3636 39.1818C86.1818 39.1818 85.3636 39.0909 85.3636 38.1818H88.1818C88.1818 38.0909 88.1818 37.9091 88.1818 37.8182C88.1818 36.3636 87.4545 35.4545 86.2727 35.4545C85.0909 35.4545 84.2727 36.4545 84.2727 37.8182C84.2727 39.2727 85.0909 40.1818 86.4545 40.1818C87.0909 40.1818 87.6363 39.9091 88.0909 39.4545L87.2727 38.8182Z" fill="black"/>
<path d="M81.7272 36.4545C82.1818 36.4545 82.5454 36.8182 82.5454 37.7273C82.5454 38.6364 82.2727 39.1818 81.7272 39.1818C81.2727 39.1818 80.9999 38.9091 80.909 38.7273V36.9091C81.0908 36.6364 81.3636 36.4545 81.7272 36.4545ZM81.909 35.4545C81.5454 35.4545 81.1817 35.6364 80.909 35.9091V33.8182L79.8181 34.3636V40.1818H80.909V39.8182C81.1817 40.0909 81.5454 40.2727 81.909 40.2727C82.9999 40.2727 83.6363 39.3636 83.6363 37.8182C83.7272 36.3636 82.9999 35.4545 81.909 35.4545Z" fill="black"/>
<path d="M74.091 38.6364C74.091 38.2727 74.3637 38 74.9092 38C75.2728 38 75.5455 38.0909 75.8183 38.1818V38.8182C75.6365 39.0909 75.3637 39.2727 74.9092 39.2727C74.3637 39.2727 74.091 39 74.091 38.6364ZM73.7274 36.6364C74.091 36.4545 74.4546 36.3636 74.9092 36.3636C75.4546 36.3636 75.7274 36.5454 75.7274 37V37.2727C75.4546 37.1818 75.091 37.0909 74.7274 37.0909C73.9092 37.0909 72.9092 37.4545 72.9092 38.6364C72.9092 39.8182 73.8183 40.2727 74.6365 40.2727C75.0001 40.2727 75.4546 40.1818 75.7274 39.8182V40.1818H76.8183V37.0909C76.8183 36.0909 76.091 35.5454 75.0001 35.5454C74.3637 35.5454 73.8183 35.7273 73.2728 36L73.7274 36.6364Z" fill="black"/>
<path d="M69.0909 36.9091V38.7273C68.9091 39 68.7272 39.1818 68.2727 39.1818C67.9091 39.1818 67.4545 38.9091 67.4545 37.7273C67.4545 36.6363 67.9091 36.4545 68.2727 36.4545C68.7272 36.4545 69 36.7273 69.0909 36.9091ZM69.0909 35.9091C68.8182 35.6363 68.4545 35.4545 68.0909 35.4545C67 35.4545 66.2727 36.3636 66.2727 37.8182C66.2727 39.3636 66.9091 40.2727 68 40.2727C68.3636 40.2727 68.7273 40.0909 69 39.8182V39.9091C69 40.4545 69 41.0909 67.5454 41.0909H67.4545L67.8182 42C69.2727 42 70 41.1818 70 39.7273V35.5454H69.0909C69.0909 35.5454 69.0909 35.9091 69.0909 35.9091Z" fill="black"/>
<path d="M62.8182 40.0909H61.7273V35.5454H62.8182V35.9091C63.0909 35.6363 63.4546 35.4545 64 35.4545C65.0909 35.4545 65.6364 36.1818 65.6364 37.5454V40.0909H64.5455V37.5454C64.5455 36.8182 64.2727 36.4545 63.7273 36.4545C63.1818 36.4545 62.9091 36.8182 62.9091 37.5454L62.8182 40.0909Z" fill="black"/>
<path d="M60.6363 34.3636V34.9091H59.5454V33.8182H60.6363V34.3636Z" fill="black"/>
<path d="M59.5454 35.5454H60.6363V37V40.0909H59.5454V35.5454Z" fill="black"/>
<path d="M56.6363 39.1818C56.2727 39.1818 55.8181 38.9091 55.8181 37.7273C55.8181 36.6364 56.2727 36.4545 56.6363 36.4545C57.0909 36.4545 57.2727 36.7273 57.4545 36.9091V38.7273C57.1818 39 57 39.1818 56.6363 39.1818ZM57.3636 35.9091C57.0909 35.6364 56.7272 35.4545 56.3636 35.4545C55.2727 35.4545 54.5454 36.3636 54.5454 37.8182C54.5454 39.3636 55.1818 40.2727 56.2727 40.2727C56.6363 40.2727 57 40.0909 57.2727 39.8182V40.1818H58.3636V33.6364L57.2727 34.1818L57.3636 35.9091Z" fill="black"/>
<path d="M52.7273 34.1818L53.8182 33.6364V37.0909V40.1818H52.7273V34.1818Z" fill="black"/>
<path d="M51.7274 34.3636V34.9091H50.6365V33.8182H51.7274V34.3636Z" fill="black"/>
<path d="M51.7274 37.1818V40.1818H50.6365V35.6364H51.7274V37.1818Z" fill="black"/>
<path d="M45.6365 38.1818V35.6364H46.7274V38.1818C46.7274 38.9091 47.0001 39.2727 47.5456 39.2727C48.091 39.2727 48.3637 38.9091 48.3637 38.1818V35.6364H49.4547V40.1818H48.3637V39.8182C48.091 40.0909 47.7274 40.2727 47.2728 40.2727C45.8183 40.2727 45.6365 38.9091 45.6365 38.1818Z" fill="black"/>
<path d="M42.6364 36.2727H41.1818V34.9091H42.5455C43.0909 34.9091 43.3636 35.0909 43.3636 35.5454C43.4545 35.9091 43.2727 36.2727 42.6364 36.2727ZM42.6364 39.0909H41.1818V37.2727H42.6364C43.2727 37.2727 43.5455 37.5454 43.5455 38.1818C43.6364 38.7273 43.2727 39.0909 42.6364 39.0909ZM44.8182 38.0909C44.8182 37.1818 44.1818 36.8182 43.9091 36.7273C44.3636 36.4545 44.6364 36 44.6364 35.4545C44.6364 34.4545 43.9091 33.8182 42.7273 33.8182H40V40.0909H42.6364C44 40.0909 44.8182 39.3636 44.8182 38.0909Z" fill="black"/>
</g>
<defs>
<clipPath id="clip0_922_256">
<rect width="102.727" height="50" fill="white"/>
</clipPath>
</defs>
</svg>
