<svg width="103" height="50" viewBox="0 0 103 50" fill="none" xmlns="http://www.w3.org/2000/svg">
<g clip-path="url(#clip0_923_304)">
<path d="M46.5455 0L0 17.5455L46.5455 9.09091V0Z" fill="#7997C4"/>
<path d="M31.1819 24.5454L27.2728 32.2727L23.2728 24.5454H15.4546L23.7273 38.8182V48.0909H30.7273V38.8182L38.9091 24.5454H31.1819Z" fill="#0F4698"/>
<path d="M7 38.8182H15.4545V33.9091H7V30H16.3636L13.2727 24.5454H0V48.0909H18.7273V42.7273H7V38.8182Z" fill="#0F4698"/>
<path d="M90.7271 47.1818C90.3634 47.1818 89.9089 46.9091 89.9089 45.7273C89.9089 44.6364 90.3634 44.4545 90.7271 44.4545C91.1816 44.4545 91.3634 44.7273 91.5452 44.9091V46.7273C91.3634 47 91.0907 47.1818 90.7271 47.1818ZM91.5452 43.9091C91.2725 43.6364 90.9089 43.4545 90.5452 43.4545C89.4543 43.4545 88.7271 44.3636 88.7271 45.8182C88.7271 47.3636 89.3634 48.2727 90.4543 48.2727C90.818 48.2727 91.1816 48.0909 91.4543 47.8182V48.1818H92.5452V41.7273L91.4543 42.2727L91.5452 43.9091Z" fill="#0F4698"/>
<path d="M86.8179 42.1818L87.9088 41.6364V44V48.1818H86.8179V42.1818Z" fill="#0F4698"/>
<path d="M85.9997 44.8182C85.727 44.7273 85.4543 44.5454 85.1816 44.5454C84.6361 44.5454 84.3634 44.9091 84.3634 45.6363V48.1818H83.2725V43.6363H84.3634V44C84.6361 43.6363 84.9997 43.5454 85.3634 43.5454C85.6361 43.5454 85.9997 43.6363 86.1816 43.8182L85.9997 44.8182Z" fill="#0F4698"/>
<path d="M80.5455 47.1818C80 47.1818 79.6364 46.6363 79.6364 45.8182C79.6364 45 80 44.4545 80.5455 44.4545C81.0909 44.4545 81.4546 45 81.4546 45.8182C81.4546 46.6363 81.0909 47.1818 80.5455 47.1818ZM80.5455 43.4545C79.3637 43.4545 78.4546 44.4545 78.4546 45.8182C78.4546 47.1818 79.3637 48.1818 80.5455 48.1818C81.7273 48.1818 82.6364 47.1818 82.6364 45.8182C82.5455 44.4545 81.7273 43.4545 80.5455 43.4545Z" fill="#0F4698"/>
<path d="M77.0907 43.5454H78.1816L76.9089 48.0909H75.9089L75.4544 46.2727C75.3635 45.9091 75.2725 45.5454 75.1816 45.2727C75.1816 45.4545 74.9998 46 74.9089 46.2727L74.4544 48.1818H73.4544L72.1816 43.6363H73.3635L73.818 45.3636C73.9089 45.6363 73.9998 46.1818 74.0907 46.4545C74.1816 46.0909 74.2726 45.6363 74.3635 45.2727L74.818 43.5454H75.818L76.2725 45.2727C76.3635 45.5454 76.4544 46.0909 76.5453 46.4545C76.6362 46.1818 76.7271 45.7273 76.818 45.2727L77.0907 43.5454Z" fill="#0F4698"/>
<path d="M68.3636 44.9091V46.7273C68.1818 47 68 47.1818 67.5454 47.1818C67.1818 47.1818 66.7272 46.9091 66.7272 45.7273C66.7272 44.6363 67.1818 44.4545 67.5454 44.4545C68 44.4545 68.2727 44.7273 68.3636 44.9091ZM68.3636 43.9091C68.0909 43.6363 67.7272 43.4545 67.3636 43.4545C66.2727 43.4545 65.5454 44.3636 65.5454 45.8182C65.5454 47.3636 66.1818 48.2727 67.2727 48.2727C67.6363 48.2727 68 48.0909 68.2727 47.8182V47.9091C68.2727 48.4545 68.2727 49.0909 66.8181 49.0909H66.7272L67.0909 50C68.5454 50 69.2727 49.2727 69.2727 47.7273V43.5454H68.1818V43.9091H68.3636Z" fill="#0F4698"/>
<path d="M62.0001 48.1818H60.9092V43.6363H62.0001V44C62.2728 43.7273 62.6365 43.5454 63.1819 43.5454C64.2728 43.5454 64.8183 44.2727 64.8183 45.6363V48.1818H63.7274V45.6363C63.7274 44.9091 63.4546 44.5454 62.9092 44.5454C62.3637 44.5454 62.091 44.9091 62.091 45.6363V48.1818H62.0001Z" fill="#0F4698"/>
<path d="M59.9088 42.3636V42.9091H58.8179V41.8182H59.9088V42.3636Z" fill="#0F4698"/>
<path d="M58.7271 43.5454H59.818V45.5454V48.1818H58.7271V43.5454Z" fill="#0F4698"/>
<path d="M56.6364 45.0909L58 48.1818H56.7273L55.7273 46.0909L55.0909 46.8182V48.1818H54V42.2727L55.0909 41.7273V45.3636C55.2727 45.1818 55.3636 44.9091 55.5455 44.8182L56.4545 43.6364H57.7273L56.6364 45.0909Z" fill="#0F4698"/>
<path d="M53.3634 44.8182C53.1816 44.6363 52.9089 44.5454 52.6361 44.5454C52.0907 44.5454 51.818 44.9091 51.818 45.6363V48.1818H50.7271V43.6363H51.818V44C52.0907 43.6363 52.4543 43.5454 52.818 43.5454C53.0907 43.5454 53.4543 43.6363 53.6361 43.8182L53.3634 44.8182Z" fill="#0F4698"/>
<path d="M47.9088 47.1818C47.3633 47.1818 46.9997 46.6363 46.9997 45.8182C46.9997 45 47.3633 44.4545 47.9088 44.4545C48.4542 44.4545 48.8179 45 48.8179 45.8182C48.8179 46.6363 48.4542 47.1818 47.9088 47.1818ZM47.9088 43.4545C46.727 43.4545 45.8179 44.4545 45.8179 45.8182C45.8179 47.1818 46.727 48.1818 47.9088 48.1818C49.0906 48.1818 49.9997 47.1818 49.9997 45.8182C49.9997 44.4545 49.0906 43.4545 47.9088 43.4545Z" fill="#0F4698"/>
<path d="M44.4544 43.5454H45.5453L44.2726 48.0909H43.2726L42.7271 46.1818C42.6362 45.8182 42.5453 45.4545 42.4544 45.1818C42.4544 45.3636 42.2726 45.9091 42.1817 46.1818L41.8181 48.0909H40.909L39.6362 43.5454H40.8181L41.2726 45.2727C41.3635 45.5454 41.4544 46.0909 41.5453 46.3636C41.6362 46 41.7271 45.5454 41.8181 45.1818L42.2726 43.4545H43.2726L43.7271 45.1818C43.818 45.4545 43.909 46 43.9999 46.3636C44.0908 46.0909 44.1817 45.6363 44.2726 45.1818L44.4544 43.5454Z" fill="#0F4698"/>
<path d="M102.455 36.8182C102.273 36.6363 102 36.5454 101.727 36.5454C101.182 36.5454 100.909 36.9091 100.909 37.6363V40.0909H99.8184V35.5454H100.909V35.9091C101.182 35.5454 101.546 35.4545 101.909 35.4545C102.182 35.4545 102.546 35.5454 102.727 35.7273L102.455 36.8182Z" fill="#0F4698"/>
<path d="M96.2726 37.3636C96.2726 36.8182 96.6363 36.4545 97.0908 36.4545C97.7272 36.4545 97.909 36.9091 97.909 37.3636H96.2726ZM98.0908 38.8182C97.909 39 97.6363 39.1818 97.1817 39.1818C96.9999 39.1818 96.2726 39.0909 96.1817 38.1818H98.9999C98.9999 38.0909 98.9999 37.9091 98.9999 37.8182C98.9999 36.3636 98.2726 35.4545 97.0908 35.4545C95.909 35.4545 95.0908 36.4545 95.0908 37.8182C95.0908 39.2727 95.909 40.1818 97.2726 40.1818C97.909 40.1818 98.4545 39.9091 98.909 39.4545L98.0908 38.8182Z" fill="#0F4698"/>
<path d="M93.5452 38.5454C93.5452 38.9091 93.7271 39.1818 93.9998 39.1818C94.2725 39.1818 94.4543 39.0909 94.6361 39L94.5452 40C94.2725 40.1818 93.9998 40.1818 93.6361 40.1818C92.727 40.1818 92.4543 39.4545 92.4543 38.8182V36.6364H91.7271V35.5454H92.4543V34.3636L93.5452 33.8182V35.5454H94.5452V36.6364H93.5452C93.5452 36.6364 93.5452 38.5454 93.5452 38.5454Z" fill="#0F4698"/>
<path d="M91.3636 40C91.0909 40.1818 90.8181 40.1818 90.4545 40.1818C89.5454 40.1818 89.2727 39.4545 89.2727 38.8182V36.6364H88.5454V35.5454H89.2727V34.3636L90.3636 33.8182V35.5454H91.3636V36.6364H90.3636V38.5454C90.3636 38.9091 90.5454 39.1818 90.8181 39.1818C91.0909 39.1818 91.2727 39.0909 91.4545 39L91.3636 40Z" fill="#0F4698"/>
<path d="M85.3639 37.3636C85.3639 36.8182 85.7275 36.4545 86.182 36.4545C86.8184 36.4545 87.0002 36.9091 87.0002 37.3636H85.3639ZM87.273 38.8182C87.0911 39 86.8184 39.1818 86.3639 39.1818C86.182 39.1818 85.3639 39.0909 85.3639 38.1818H88.182C88.182 38.0909 88.182 37.9091 88.182 37.8182C88.182 36.3636 87.4548 35.4545 86.273 35.4545C85.0911 35.4545 84.2729 36.4545 84.2729 37.8182C84.2729 39.2727 85.0911 40.1818 86.4548 40.1818C87.0911 40.1818 87.6366 39.9091 88.0911 39.4545L87.273 38.8182Z" fill="#0F4698"/>
<path d="M81.7274 36.4545C82.182 36.4545 82.5456 36.8182 82.5456 37.7273C82.5456 38.6364 82.2729 39.1818 81.7274 39.1818C81.2729 39.1818 81.0002 38.9091 80.9093 38.7273V36.9091C81.0911 36.6364 81.3638 36.4545 81.7274 36.4545ZM81.9093 35.4545C81.5456 35.4545 81.182 35.6364 80.9093 35.9091V33.8182L79.8184 34.3636V40.1818H80.9093V39.8182C81.182 40.0909 81.5456 40.2727 81.9093 40.2727C83.0002 40.2727 83.6365 39.3636 83.6365 37.8182C83.7274 36.3636 83.0002 35.4545 81.9093 35.4545Z" fill="#0F4698"/>
<path d="M74.091 38.6364C74.091 38.2727 74.3637 38 74.9092 38C75.2728 38 75.5455 38.0909 75.8183 38.1818V38.8182C75.6365 39.0909 75.3637 39.2727 74.9092 39.2727C74.3637 39.2727 74.091 39 74.091 38.6364ZM73.7274 36.6364C74.091 36.4545 74.4546 36.3636 74.9092 36.3636C75.4546 36.3636 75.7274 36.5454 75.7274 37V37.2727C75.4546 37.1818 75.091 37.0909 74.7274 37.0909C73.9092 37.0909 72.9092 37.4545 72.9092 38.6364C72.9092 39.8182 73.8183 40.2727 74.6365 40.2727C75.0001 40.2727 75.4546 40.1818 75.7274 39.8182V40.1818H76.8183V37.0909C76.8183 36.0909 76.091 35.5454 75.0001 35.5454C74.3637 35.5454 73.8183 35.7273 73.2728 36L73.7274 36.6364Z" fill="#0F4698"/>
<path d="M69.0911 36.9091V38.7273C68.9093 39 68.7275 39.1818 68.2729 39.1818C67.9093 39.1818 67.4548 38.9091 67.4548 37.7273C67.4548 36.6363 67.9093 36.4545 68.2729 36.4545C68.7275 36.4545 69.0002 36.7273 69.0911 36.9091ZM69.0911 35.9091C68.8184 35.6363 68.4548 35.4545 68.0911 35.4545C67.0002 35.4545 66.2729 36.3636 66.2729 37.8182C66.2729 39.3636 66.9093 40.2727 68.0002 40.2727C68.3639 40.2727 68.7275 40.0909 69.0002 39.8182V39.9091C69.0002 40.4545 69.0002 41.0909 67.5457 41.0909H67.4548L67.8184 42C69.2729 42 70.0002 41.1818 70.0002 39.7273V35.5454H69.0911C69.0911 35.5454 69.0911 35.9091 69.0911 35.9091Z" fill="#0F4698"/>
<path d="M62.818 40.0909H61.7271V35.5454H62.818V35.9091C63.0907 35.6363 63.4543 35.4545 63.9998 35.4545C65.0907 35.4545 65.6361 36.1818 65.6361 37.5454V40.0909H64.5452V37.5454C64.5452 36.8182 64.2725 36.4545 63.727 36.4545C63.1816 36.4545 62.9089 36.8182 62.9089 37.5454L62.818 40.0909Z" fill="#0F4698"/>
<path d="M60.6363 34.3636V34.9091H59.5454V33.8182H60.6363V34.3636Z" fill="#0F4698"/>
<path d="M59.5454 35.5454H60.6363V37V40.0909H59.5454V35.5454Z" fill="#0F4698"/>
<path d="M56.6363 39.1818C56.2727 39.1818 55.8181 38.9091 55.8181 37.7273C55.8181 36.6364 56.2727 36.4545 56.6363 36.4545C57.0909 36.4545 57.2727 36.7273 57.4545 36.9091V38.7273C57.1818 39 57 39.1818 56.6363 39.1818ZM57.3636 35.9091C57.0909 35.6364 56.7272 35.4545 56.3636 35.4545C55.2727 35.4545 54.5454 36.3636 54.5454 37.8182C54.5454 39.3636 55.1818 40.2727 56.2727 40.2727C56.6363 40.2727 57 40.0909 57.2727 39.8182V40.1818H58.3636V33.6364L57.2727 34.1818L57.3636 35.9091Z" fill="#0F4698"/>
<path d="M52.7271 34.1818L53.818 33.6364V37.0909V40.1818H52.7271V34.1818Z" fill="#0F4698"/>
<path d="M51.7271 34.3636V34.9091H50.6362V33.8182H51.7271V34.3636Z" fill="#0F4698"/>
<path d="M51.7271 37.1818V40.1818H50.6362V35.6364H51.7271V37.1818Z" fill="#0F4698"/>
<path d="M45.6362 38.1818V35.6364H46.7271V38.1818C46.7271 38.9091 46.9999 39.2727 47.5453 39.2727C48.0908 39.2727 48.3635 38.9091 48.3635 38.1818V35.6364H49.4544V40.1818H48.3635V39.8182C48.0908 40.0909 47.7271 40.2727 47.2726 40.2727C45.818 40.2727 45.6362 38.9091 45.6362 38.1818Z" fill="#0F4698"/>
<path d="M42.6364 36.2727H41.1818V34.9091H42.5455C43.0909 34.9091 43.3636 35.0909 43.3636 35.5454C43.4545 35.9091 43.2727 36.2727 42.6364 36.2727ZM42.6364 39.0909H41.1818V37.2727H42.6364C43.2727 37.2727 43.5455 37.5454 43.5455 38.1818C43.6364 38.7273 43.2727 39.0909 42.6364 39.0909ZM44.8182 38.0909C44.8182 37.1818 44.1818 36.8182 43.9091 36.7273C44.3636 36.4545 44.6364 36 44.6364 35.4545C44.6364 34.4545 43.9091 33.8182 42.7273 33.8182H40V40.0909H42.6364C44 40.0909 44.8182 39.3636 44.8182 38.0909Z" fill="#0F4698"/>
</g>
<defs>
<clipPath id="clip0_923_304">
<rect width="102.727" height="50" fill="white"/>
</clipPath>
</defs>
</svg>
