<svg width="465" height="124" viewBox="0 0 465 124" fill="none" xmlns="http://www.w3.org/2000/svg">
    <path d="M42.6481 0.172382V18.2039H39.4503C30.8311 18.2039 27.6075 21.1689 27.6075 27.7626V28.5642H42.1135V46.1907H27.5816V94.5014H8.61924V46.1476H0V28.5211H8.61924V26.6421C8.61924 8.34344 20.6 0 37.6919 0C40.7691 0 42.6481 0.172382 42.6481 0.172382Z" fill="#7997C4"/>
    <path d="M66.5571 28.5205H47.3105V94.458H66.5571V28.5205Z" fill="#7997C4"/>
    <path d="M114.825 46.1493H111.852C101.224 46.1493 93.5531 52.8808 93.5531 66.8787V94.4601H74.4526V28.5228H93.2944V34.4442C96.9232 30.1346 102.983 27.5488 109.671 27.5488C111.964 27.5488 112.903 27.5488 114.791 27.6867L114.825 46.1493Z" fill="#7997C4"/>
    <path d="M138.883 94.4601H119.773V28.5228H138.615V33.0996C142.907 29.0574 148.597 26.8334 154.492 26.8938C161.896 26.8938 168.352 29.7209 172.791 34.8323C178.106 29.6953 185.223 26.8455 192.615 26.8938C210.241 26.8938 220.197 37.3922 220.197 56.0958V94.4428H201.053V56.9146C201.053 49.7867 197.821 44.6754 190.96 44.6754C183.694 44.6754 179.522 50.1917 179.522 59.3281V94.4515H160.413V56.9146C160.413 49.7867 157.181 44.6754 150.32 44.6754C142.787 44.6754 138.883 50.5968 138.883 60.6897V94.4601Z" fill="#7997C4"/>
    <path d="M246.932 69.2997C232.28 65.6623 225.384 58.3963 225.384 47.7515C225.384 34.8225 237.227 26.8928 250.949 26.8928C260.777 26.8609 270.251 30.5571 277.462 37.236L265.774 49.6477C261.732 46.2863 256.215 43.1918 250.164 43.1918C246.398 43.1918 243.976 44.9157 243.976 47.0964C243.976 48.82 245.7 49.9236 248.682 50.5956L258.508 52.88C270.351 55.7068 280.168 61.499 280.168 74.6778C280.168 87.0551 269.67 95.9417 252.587 95.9417C239.658 95.9417 228.763 89.615 223.652 83.1594L235.357 71.1786C241.95 77.6431 248.286 79.9271 254.198 79.9271C258.103 79.9271 261.602 78.2032 261.602 75.6175C261.602 73.6004 259.878 72.5233 255.681 71.4545L246.932 69.2997Z" fill="#7997C4"/>
    <path d="M303.399 94.4579H284.29V0.171875H303.399V32.3303C306.364 29.6411 312.018 26.9519 318.741 26.9519C334.885 26.9519 345.65 37.4502 345.65 56.1539V94.5009H326.412V57.5847C326.412 50.5946 323.18 44.6557 315.509 44.6557C306.493 44.6557 303.442 51.3789 303.442 61.4721L303.399 94.4579Z" fill="#7997C4"/>
    <path d="M418.38 0.172382V18.2039H415.145C406.527 18.2039 403.303 21.1689 403.303 27.7626V28.5642H417.835V46.1907H403.303V94.5014H384.342V46.1476H375.724V28.5211H384.342V26.6421C384.342 8.34344 396.315 0 413.406 0C416.492 0 418.38 0.172382 418.38 0.172382Z" fill="#7997C4"/>
    <path d="M431.385 71.1783V46.1826H422.764V28.5217H431.385V10.0938H450.347V28.5217H464.999V46.1482H450.347V68.8943C450.347 75.488 453.571 76.9705 459.085 76.9705H464.741V94.4589C464.741 94.4589 459.63 94.7262 454.397 94.7262C438.787 94.7262 431.385 86.3655 431.385 71.1783Z" fill="#7997C4"/>
    <path d="M371.766 28.5205H352.519V94.458H371.766V28.5205Z" fill="#7997C4"/>
    <path d="M362.208 122.438C359.263 122.438 356.438 121.268 354.358 119.186C352.274 117.104 351.106 114.28 351.106 111.336C351.106 108.392 352.274 105.568 354.358 103.486C356.438 101.404 359.263 100.234 362.208 100.234C365.149 100.234 367.974 101.404 370.058 103.486C372.138 105.568 373.309 108.392 373.309 111.336C373.309 114.28 372.138 117.104 370.058 119.186C367.974 121.268 365.149 122.438 362.208 122.438Z" fill="#0F4698"/>
    <path d="M56.8617 0.0605469C59.806 0.0605469 62.6298 1.23019 64.7116 3.31214C66.7938 5.3941 67.9632 8.21782 67.9632 11.1621C67.9632 14.1065 66.7938 16.9302 64.7116 19.0122C62.6298 21.0941 59.806 22.2638 56.8617 22.2638C53.9174 22.2638 51.0936 21.0941 49.0118 19.0122C46.9296 16.9302 45.7603 14.1065 45.7603 11.1621C45.7603 8.21782 46.9296 5.3941 49.0118 3.31214C51.0936 1.23019 53.9174 0.0605469 56.8617 0.0605469Z" fill="#0F4698"/>
</svg>
