<svg width="159" height="26" viewBox="0 0 159 26" fill="none" xmlns="http://www.w3.org/2000/svg">
<path d="M11.8847 25.1295C11.5221 25.1295 11.1596 25.0251 10.8488 24.8165C9.86481 24.2425 9.55406 22.9382 10.1238 21.9469L21.8804 2.01646C22.4502 1.02515 23.7449 0.712108 24.729 1.28602C25.713 1.85993 26.0238 3.16428 25.4541 4.15559L13.6456 24.1382C13.2831 24.7643 12.6098 25.1295 11.8847 25.1295Z" fill="url(#paint0_linear)"/>
<path d="M23.642 5.14657C24.7861 5.14657 25.7136 4.21221 25.7136 3.05961C25.7136 1.90702 24.7861 0.972656 23.642 0.972656C22.4978 0.972656 21.5703 1.90702 21.5703 3.05961C21.5703 4.21221 22.4978 5.14657 23.642 5.14657Z" fill="white"/>
<path d="M21.7265 25.1295C21.3639 25.1295 21.0014 25.0251 20.6906 24.8165C19.7066 24.2425 19.3959 22.9382 19.9656 21.9469L31.7222 2.01646C32.292 1.02515 33.5867 0.712108 34.5708 1.28602C35.5548 1.85993 35.8656 3.16428 35.2959 4.15559L23.4874 24.086C23.1248 24.7643 22.3998 25.1295 21.7265 25.1295Z" fill="url(#paint1_linear)"/>
<path d="M14.7857 1.28602C13.8017 0.712108 12.5587 1.02515 11.989 2.01646C11.4193 3.00776 11.73 4.25993 12.7141 4.83385C13.6981 5.40776 14.9411 5.09472 15.5108 4.10341C16.0805 3.11211 15.7698 1.85993 14.7857 1.28602Z" fill="url(#paint2_linear)"/>
<path d="M11.7299 6.50379C10.7458 5.92988 9.45103 6.24292 8.88132 7.23423L0.283925 21.7908C-0.285782 22.7821 0.0249672 24.0864 1.00901 24.6603C1.31976 24.869 1.6823 24.9734 2.04484 24.9734C2.76992 24.9734 3.44321 24.6081 3.80575 23.9299L12.4031 9.37336C13.0246 8.38206 12.7139 7.07771 11.7299 6.50379Z" fill="url(#paint3_linear)"/>
<path d="M38.8164 14.799C38.8164 9.37295 41.1988 7.18164 45.5493 7.18164C49.3819 7.18164 51.6089 8.59034 52.0232 12.3469H48.346C48.1389 10.5729 47.1548 10.0512 45.4975 10.0512C43.5812 10.0512 42.4418 10.9382 42.4418 13.7556V15.9469C42.4418 18.7121 43.5294 19.7034 45.4975 19.7034C47.0513 19.7034 48.0353 19.1816 48.346 17.4077H52.0232C51.5571 21.1121 49.3301 22.5729 45.5493 22.5729C41.2506 22.5208 38.8164 20.3816 38.8164 14.799Z" fill="white"/>
<path d="M61.449 22.2603H54.3535V7.49512H61.449C64.2975 7.49512 65.903 8.74729 65.903 11.1473C65.903 12.6082 65.2815 13.8603 63.5206 14.4864C65.4369 15.0082 66.3174 16.2603 66.3174 17.9821C66.3174 20.6951 64.7118 22.2603 61.449 22.2603ZM60.4649 10.0516H57.8235V13.4951H60.4649C61.6043 13.4951 62.2258 13.0256 62.2258 12.0342V11.4603C62.2258 10.5212 61.6043 10.0516 60.4649 10.0516ZM60.6721 15.8429H57.8235V19.6516H60.6721C61.9669 19.6516 62.692 19.1299 62.692 18.0864V17.4082C62.6402 16.469 62.0187 15.8429 60.6721 15.8429Z" fill="white"/>
<path d="M68.5957 22.2603V7.49512H74.0338C78.9022 7.49512 81.2846 9.5299 81.2846 14.8516C81.2846 20.1212 78.9022 22.2082 74.0338 22.2082H68.5957V22.2603ZM77.6074 15.6864V14.0169C77.6074 11.5647 76.468 10.5212 73.982 10.5212H72.1175V19.2342H73.982C76.468 19.2342 77.6074 18.2951 77.6074 15.6864Z" fill="white"/>
<path d="M83.0469 14.799C83.0469 9.37295 85.4293 7.18164 89.7798 7.18164C93.6123 7.18164 95.8394 8.59034 96.2537 12.3469H92.5765C92.3693 10.5729 91.3853 10.0512 89.728 10.0512C87.8117 10.0512 86.6723 10.9382 86.6723 13.7556V15.9469C86.6723 18.7121 87.7599 19.7034 89.728 19.7034C91.2817 19.7034 92.2658 19.1816 92.5765 17.4077H96.2537C95.7876 21.1121 93.5606 22.5729 89.7798 22.5729C85.4293 22.5208 83.0469 20.3816 83.0469 14.799Z" fill="white"/>
<path d="M105.006 9.94736V21.7387H103.919V9.94736H99.6719V8.95605H109.253V9.94736H105.006Z" fill="white"/>
<path d="M110.496 21.739V12.3477H111.532V14.0172H111.584C111.791 13.5998 112.05 13.1824 112.516 12.8694C112.93 12.5042 113.552 12.3477 114.38 12.3477H115.002V13.3911H114.173C113.396 13.3911 112.775 13.5477 112.257 13.9129C111.739 14.2781 111.532 14.7477 111.532 15.3216V21.6868H110.496V21.739Z" fill="white"/>
<path d="M123.34 21.7384C122.925 21.7384 122.666 21.6341 122.459 21.4254C122.304 21.2167 122.2 20.9558 122.148 20.5906V20.2775H122.045C121.838 20.7993 121.527 21.2167 121.009 21.5297C120.491 21.8427 119.921 21.9993 119.196 21.9993C118.212 21.9993 117.487 21.7384 116.917 21.2688C116.4 20.7993 116.141 20.121 116.141 19.2341C116.141 18.3993 116.451 17.721 117.021 17.2514C117.591 16.7819 118.575 16.521 119.921 16.521H122.045V15.4254C122.045 13.8601 121.268 13.1297 119.662 13.1297C119.041 13.1297 118.523 13.2862 118.109 13.5471C117.694 13.808 117.384 14.1732 117.125 14.6949L116.451 14.1732C116.71 13.6514 117.073 13.1819 117.643 12.8167C118.16 12.4514 118.834 12.2949 119.714 12.2949C120.802 12.2949 121.631 12.5558 122.2 13.1297C122.77 13.7036 123.081 14.4341 123.081 15.4254V20.9558H124.324V21.8427H123.34V21.7384ZM119.403 21.0601C119.766 21.0601 120.129 21.008 120.439 20.9036C120.75 20.7993 121.061 20.6427 121.32 20.4862C121.579 20.3297 121.786 20.0688 121.889 19.8601C122.045 19.5993 122.097 19.3384 122.097 19.0254V17.3036H119.921C118.989 17.3036 118.316 17.4601 117.902 17.7732C117.487 18.0862 117.28 18.5036 117.28 19.0254V19.4427C117.28 20.0167 117.487 20.4341 117.85 20.6949C118.212 20.9558 118.73 21.0601 119.403 21.0601Z" fill="white"/>
<path d="M129.763 21.9474C128.469 21.9474 127.485 21.53 126.811 20.643C126.138 19.8082 125.775 18.6082 125.775 17.043C125.775 15.4778 126.138 14.2778 126.811 13.443C127.485 12.6082 128.469 12.1387 129.763 12.1387C130.644 12.1387 131.317 12.3474 131.835 12.7126C132.353 13.0778 132.767 13.5995 133.026 14.2256L132.146 14.643C131.939 14.1213 131.628 13.7561 131.214 13.4952C130.799 13.2343 130.333 13.0778 129.712 13.0778C128.779 13.0778 128.054 13.3908 127.536 14.0169C127.018 14.643 126.811 15.4256 126.811 16.4169V17.7213C126.811 18.7126 127.07 19.4952 127.536 20.1213C128.054 20.7474 128.728 21.0604 129.712 21.0604C130.333 21.0604 130.903 20.9039 131.317 20.643C131.731 20.3821 132.094 19.9648 132.353 19.443L133.13 19.9648C132.819 20.5908 132.405 21.0604 131.835 21.4778C131.317 21.7387 130.592 21.9474 129.763 21.9474Z" fill="white"/>
<path d="M135.459 8.22559H136.495V17.1473H136.547L137.997 15.5821L141.104 12.3473H142.347L138.722 16.156L142.762 21.6865H141.467L137.945 16.7821L136.495 18.2951V21.6865H135.459V8.22559Z" fill="white"/>
<path d="M147.839 21.947C147.217 21.947 146.647 21.8426 146.181 21.6339C145.663 21.4252 145.249 21.1122 144.886 20.6948C144.524 20.2774 144.265 19.7556 144.058 19.1296C143.851 18.5035 143.799 17.8252 143.799 17.0426C143.799 16.26 143.902 15.5817 144.058 15.0078C144.265 14.3817 144.524 13.9122 144.886 13.4948C145.249 13.0774 145.663 12.7643 146.181 12.5035C146.699 12.2948 147.217 12.1904 147.839 12.1904C148.408 12.1904 148.978 12.2948 149.444 12.5035C149.91 12.7122 150.325 13.0252 150.687 13.4426C151.05 13.86 151.309 14.3296 151.464 14.9035C151.671 15.4774 151.723 16.1035 151.723 16.7817V17.2513H144.886V17.7209C144.886 18.1904 144.938 18.66 145.094 19.0774C145.249 19.4948 145.456 19.86 145.715 20.1209C145.974 20.4339 146.285 20.6426 146.647 20.7991C147.01 20.9556 147.424 21.06 147.89 21.06C149.237 21.06 150.169 20.4339 150.687 19.1817L151.464 19.7035C151.153 20.3817 150.739 20.9556 150.117 21.373C149.496 21.7383 148.719 21.947 147.839 21.947ZM147.839 13.0252C147.372 13.0252 147.01 13.1296 146.647 13.2861C146.285 13.4426 145.974 13.7035 145.715 13.9643C145.456 14.2774 145.249 14.5904 145.094 15.0078C144.938 15.4252 144.886 15.8426 144.886 16.3643V16.4687H150.635V16.3122C150.635 15.8426 150.584 15.373 150.428 14.9556C150.273 14.5383 150.117 14.2252 149.858 13.9122C149.599 13.6513 149.341 13.3904 148.978 13.2339C148.615 13.1296 148.253 13.0252 147.839 13.0252Z" fill="white"/>
<path d="M154.363 21.739V12.3477H155.399V14.0172H155.451C155.658 13.5998 155.917 13.1824 156.383 12.8694C156.797 12.5042 157.419 12.3477 158.248 12.3477H158.869V13.3911H158.04C157.264 13.3911 156.642 13.5477 156.124 13.9129C155.606 14.2781 155.399 14.7477 155.399 15.3216V21.6868H154.363V21.739Z" fill="white"/>
<defs>
<linearGradient id="paint0_linear" x1="9.81457" y1="13.0846" x2="25.7375" y2="13.0846" gradientUnits="userSpaceOnUse">
<stop stop-color="white"/>
<stop offset="0.6338" stop-color="#87A2CB"/>
<stop offset="0.9946" stop-color="#87A2CB" stop-opacity="0"/>
</linearGradient>
<linearGradient id="paint1_linear" x1="21.8491" y1="23.1756" x2="35.4645" y2="-0.390124" gradientUnits="userSpaceOnUse">
<stop stop-color="white"/>
<stop offset="0.6338" stop-color="#87A2CB"/>
<stop offset="0.9946" stop-color="#87A2CB" stop-opacity="0"/>
</linearGradient>
<linearGradient id="paint2_linear" x1="15.587" y1="-0.124135" x2="0.925572" y2="24.8255" gradientUnits="userSpaceOnUse">
<stop stop-color="white"/>
<stop offset="0.6338" stop-color="#87A2CB"/>
<stop offset="0.9946" stop-color="#87A2CB" stop-opacity="0"/>
</linearGradient>
<linearGradient id="paint3_linear" x1="15.4821" y1="-0.185266" x2="0.820717" y2="24.7643" gradientUnits="userSpaceOnUse">
<stop stop-color="white"/>
<stop offset="0.6338" stop-color="#87A2CB"/>
<stop offset="0.9946" stop-color="#87A2CB" stop-opacity="0"/>
</linearGradient>
</defs>
</svg>
